<?xml version="1.0" standalone="no"?>
<!DOCTYPE svg PUBLIC "-//W3C//DTD SVG 20010904//EN"
 "http://www.w3.org/TR/2001/REC-SVG-20010904/DTD/svg10.dtd">
<svg version="1.0" xmlns="http://www.w3.org/2000/svg"
 width="117.000000pt" height="117.000000pt" viewBox="0 0 117.000000 117.000000"
 preserveAspectRatio="xMidYMid meet">

<g transform="translate(0.000000,117.000000) scale(0.100000,-0.100000)"
fill="#000000" stroke="none">
<path d="M463 1145 c-94 -20 -198 -79 -274 -155 -223 -221 -223 -578 0 -801
276 -276 737 -199 910 151 210 428 -168 907 -636 805z m246 -60 c183 -43 333
-193 376 -376 87 -370 -244 -701 -614 -614 -183 43 -333 193 -376 376 -87 370
244 701 614 614z"/>
<path d="M594 1046 c-10 -26 4 -48 28 -44 17 2 23 10 23 28 0 18 -6 26 -23 28
-13 2 -25 -3 -28 -12z"/>
<path d="M474 1036 c-10 -26 4 -48 28 -44 17 2 23 10 23 28 0 18 -6 26 -23 28
-13 2 -25 -3 -28 -12z"/>
<path d="M710 1006 c0 -29 24 -40 44 -20 20 20 9 44 -20 44 -19 0 -24 -5 -24
-24z"/>
<path d="M364 996 c-9 -24 4 -48 23 -44 12 2 18 12 18 28 0 29 -32 41 -41 16z"/>
<path d="M820 965 c-11 -13 -11 -19 3 -32 21 -21 49 -9 45 19 -4 28 -30 35
-48 13z"/>
<path d="M263 924 c-3 -8 2 -23 11 -32 15 -15 17 -15 32 0 21 21 11 48 -16 48
-11 0 -23 -7 -27 -16z"/>
<path d="M490 889 c-41 -10 -86 -27 -100 -38 -33 -24 -39 -75 -11 -93 17 -10
19 -19 14 -58 -3 -25 -16 -65 -29 -90 -23 -48 -19 -80 13 -80 13 0 15 -10 11
-55 -3 -33 0 -59 6 -64 6 -5 32 -12 59 -16 l47 -7 0 -53 c0 -98 17 -107 88
-45 40 36 107 73 196 109 24 10 27 15 21 39 -17 68 -16 93 4 147 30 79 29 180
-2 226 -41 62 -119 99 -202 98 -22 0 -74 -9 -115 -20z m210 -59 c54 -28 73
-59 72 -123 -1 -57 -21 -127 -37 -124 -5 1 -8 15 -6 30 4 43 -23 77 -62 77
-18 0 -43 -7 -55 -16 -21 -14 -22 -14 -22 9 0 13 -7 32 -15 43 -22 29 -19 33
38 36 48 3 52 5 52 28 0 23 -4 25 -46 28 -27 2 -70 -5 -100 -15 -30 -10 -62
-17 -72 -15 -64 12 62 59 166 61 30 1 63 -7 87 -19z m-186 -123 c12 -9 19 -28
20 -58 1 -42 3 -44 38 -53 33 -8 41 -6 61 12 44 41 50 24 11 -33 -23 -35 -24
-39 -10 -54 12 -12 21 -13 34 -5 25 15 49 6 56 -19 10 -40 6 -55 -17 -61 -13
-3 -51 -23 -85 -45 l-62 -41 0 33 c0 25 7 39 30 55 19 14 30 32 30 46 0 37
-26 39 -60 6 -24 -23 -40 -30 -70 -30 l-40 0 0 49 c0 31 -5 53 -15 61 -23 19
-13 34 26 40 28 4 34 9 34 30 0 18 -6 26 -22 28 -22 3 -31 30 -16 45 10 11 38
8 57 -6z"/>
<path d="M910 885 c-18 -21 -5 -47 22 -43 26 3 37 36 16 49 -18 12 -24 11 -38
-6z"/>
<path d="M190 835 c-11 -13 -11 -19 3 -32 21 -21 49 -9 45 19 -4 28 -30 35
-48 13z"/>
<path d="M972 783 c-13 -26 -4 -43 24 -43 19 0 24 5 24 24 0 13 -7 27 -16 30
-22 8 -22 8 -32 -11z"/>
<path d="M147 733 c-13 -12 -7 -44 8 -49 24 -10 47 14 34 37 -10 19 -30 25
-42 12z"/>
<path d="M1004 665 c-8 -21 2 -45 19 -45 8 0 20 7 27 15 10 12 10 18 0 30 -7
8 -19 15 -27 15 -7 0 -16 -7 -19 -15z"/>
<path d="M124 606 c-10 -26 4 -48 28 -44 33 4 33 52 0 56 -13 2 -25 -3 -28
-12z"/>
<path d="M1004 545 c-8 -21 2 -45 19 -45 8 0 20 7 27 15 10 12 10 18 0 30 -7
8 -19 15 -27 15 -7 0 -16 -7 -19 -15z"/>
<path d="M144 485 c-8 -21 2 -45 19 -45 8 0 20 7 27 15 10 12 10 18 0 30 -7 8
-19 15 -27 15 -7 0 -16 -7 -19 -15z"/>
<path d="M971 436 c-17 -20 -3 -46 25 -46 19 0 24 5 24 24 0 13 -7 27 -16 30
-21 8 -20 8 -33 -8z"/>
<path d="M194 375 c-8 -21 2 -45 19 -45 8 0 20 7 27 15 10 12 10 18 0 30 -7 8
-19 15 -27 15 -7 0 -16 -7 -19 -15z"/>
<path d="M906 324 c-4 -10 -1 -24 7 -31 19 -19 49 -5 45 21 -4 27 -43 34 -52
10z"/>
<path d="M270 285 c-17 -20 -5 -45 20 -45 11 0 23 7 26 15 6 15 -11 45 -26 45
-4 0 -13 -7 -20 -15z"/>
<path d="M822 247 c-9 -10 -9 -18 1 -31 17 -23 49 -11 45 18 -4 25 -30 32 -46
13z"/>
<path d="M370 215 c-7 -8 -10 -22 -6 -30 7 -19 45 -19 52 0 6 15 -11 45 -26
45 -4 0 -13 -7 -20 -15z"/>
<path d="M722 201 c-21 -13 -10 -46 16 -49 27 -4 40 22 22 43 -14 17 -20 18
-38 6z"/>
<path d="M480 175 c-11 -13 -11 -19 3 -32 21 -21 49 -9 45 19 -4 28 -30 35
-48 13z"/>
<path d="M596 164 c-4 -10 -1 -24 7 -31 19 -19 49 -5 45 21 -4 27 -43 34 -52
10z"/>
</g>
</svg>
