<?xml version="1.0" standalone="no"?>
<!DOCTYPE svg PUBLIC "-//W3C//DTD SVG 20010904//EN"
 "http://www.w3.org/TR/2001/REC-SVG-20010904/DTD/svg10.dtd">
<svg version="1.0" xmlns="http://www.w3.org/2000/svg"
 width="800.000000pt" height="556.000000pt" viewBox="0 0 800.000000 556.000000"
 preserveAspectRatio="xMidYMid meet">

<g transform="translate(0.000000,556.000000) scale(0.100000,-0.100000)"
fill="#000000" stroke="none">
<path d="M5609 5545 c-70 -22 -137 -73 -189 -141 l-46 -60 -65 13 c-35 7 -110
29 -167 48 -120 41 -260 67 -502 95 -237 27 -278 26 -382 -9 -47 -16 -94 -33
-104 -39 -14 -7 -26 -6 -44 4 -44 24 -70 17 -114 -29 -23 -24 -58 -53 -79 -66
-65 -36 -177 -143 -202 -191 -66 -130 -71 -251 -14 -344 32 -54 269 -311 384
-417 33 -31 86 -75 117 -97 31 -23 71 -63 89 -89 18 -27 49 -65 70 -86 59 -60
57 -77 -20 -169 l-66 -80 -70 4 c-67 3 -78 7 -235 94 -183 101 -261 134 -320
134 -50 0 -76 -32 -61 -74 9 -23 8 -26 -17 -32 -15 -3 -48 -13 -73 -21 -54
-19 -71 -14 -289 74 -193 79 -260 94 -410 95 -283 1 -531 -90 -755 -277 -83
-70 -281 -193 -409 -255 -67 -32 -137 -73 -156 -90 l-35 -32 35 24 c19 14 55
35 80 47 l45 22 -40 -33 c-22 -18 -71 -65 -110 -104 -38 -40 -99 -90 -134
-113 -76 -49 -73 -51 17 -11 65 29 66 29 37 5 -16 -14 -61 -44 -98 -66 -37
-23 -66 -44 -63 -46 2 -3 45 16 96 40 111 55 97 33 -35 -56 -100 -66 -125 -87
-80 -64 69 34 80 30 28 -12 -29 -22 -70 -65 -92 -93 -44 -60 -119 -194 -79
-143 42 55 91 106 120 127 l30 20 -31 -53 c-27 -48 -68 -185 -58 -195 2 -2 12
22 21 54 21 64 80 187 96 197 6 3 2 -15 -9 -42 -10 -26 -33 -84 -51 -128 -50
-127 -153 -333 -207 -415 -69 -105 -145 -171 -267 -230 -55 -28 -98 -50 -95
-50 18 0 157 53 200 76 62 34 137 114 208 222 30 45 56 82 58 82 6 0 -26 -59
-79 -147 -101 -169 -169 -211 -461 -287 -157 -40 -305 -92 -294 -103 2 -2 28
8 58 21 46 21 346 81 357 71 2 -2 -16 -10 -40 -18 -24 -9 -95 -35 -158 -58
-63 -23 -182 -59 -265 -80 -170 -43 -152 -51 35 -15 69 14 148 27 175 31 l50
6 -40 -22 c-48 -25 -76 -50 -118 -103 l-31 -40 61 50 c49 40 81 56 150 77 48
14 144 54 213 87 69 34 123 59 120 57 -3 -3 -41 -29 -85 -57 -124 -81 -216
-151 -209 -161 7 -13 -122 -95 -256 -161 -63 -32 -112 -58 -108 -58 35 0 237
98 387 187 14 9 6 -2 -19 -22 -86 -73 -178 -172 -200 -214 -12 -24 -19 -45
-17 -47 2 -3 10 8 16 24 17 40 67 86 201 182 63 46 158 117 210 158 l95 75
-76 -79 c-42 -44 -91 -99 -109 -124 -27 -37 -22 -34 31 21 79 82 229 221 209
194 -8 -11 -58 -67 -110 -125 -93 -104 -226 -270 -216 -270 2 0 31 33 64 73
96 117 223 252 308 328 90 81 210 177 200 160 -4 -6 -3 -11 3 -11 5 0 13 4 16
10 3 5 76 53 163 107 200 123 298 216 327 308 l18 59 16 -24 c55 -84 111 -145
183 -201 45 -35 113 -90 151 -123 69 -58 69 -59 63 -100 -13 -84 -79 -194
-194 -322 -124 -136 -132 -149 -132 -199 0 -80 41 -127 153 -172 93 -38 448
-209 562 -270 128 -70 280 -172 324 -217 19 -20 40 -36 47 -36 16 0 74 -49 74
-62 0 -5 -10 -18 -22 -28 -19 -15 -23 -28 -22 -73 0 -31 -4 -53 -8 -51 -16 10
-21 -28 -9 -66 15 -52 101 -179 141 -208 62 -46 91 -20 146 133 33 94 35 105
29 179 l-7 80 43 -34 c178 -139 291 -235 332 -283 28 -33 60 -60 75 -63 32 -8
69 -39 88 -76 13 -25 12 -29 -16 -57 -33 -32 -35 -52 -21 -164 6 -48 13 -63
47 -98 21 -22 60 -53 85 -70 77 -49 197 -64 212 -26 3 8 -3 77 -14 153 -21
150 -39 205 -122 369 -27 55 -55 120 -61 145 -10 39 -20 51 -89 103 -43 32
-76 61 -74 64 11 10 92 -42 158 -102 39 -36 76 -65 82 -65 88 -2 487 -80 620
-122 l97 -31 65 22 c78 25 138 61 162 97 12 18 19 60 24 138 8 116 59 449 84
545 8 31 17 81 21 111 6 48 13 60 58 105 39 39 76 61 161 99 61 26 141 62 178
79 l68 31 72 -19 c40 -9 113 -36 162 -58 50 -22 198 -75 330 -119 221 -72 243
-82 277 -117 58 -62 59 -81 3 -162 -92 -134 -265 -286 -346 -304 -16 -4 -35
-15 -42 -26 -21 -34 -67 -25 -109 22 -30 33 -41 39 -55 31 -9 -6 -40 -8 -68
-5 -48 5 -53 3 -74 -23 -21 -27 -22 -27 -28 -6 -3 12 -8 22 -12 22 -13 0 -107
-68 -143 -104 -56 -54 -63 -112 -17 -137 32 -17 195 -32 299 -29 157 6 232 5
297 -4 l62 -9 33 35 c18 19 83 92 143 163 61 71 163 182 229 247 l118 119 -4
117 c-5 141 -15 165 -96 225 -85 63 -389 364 -429 425 l-34 52 80 101 c43 56
92 124 107 152 l29 52 0 240 0 240 38 72 c85 164 293 496 351 561 35 38 111
82 167 95 20 5 32 0 56 -26 17 -17 34 -43 38 -57 9 -31 24 -41 50 -34 11 3 32
1 45 -4 17 -6 37 -5 62 4 36 12 37 12 46 -16 11 -31 40 -51 69 -48 10 1 53
-15 96 -36 69 -34 77 -41 77 -66 0 -38 41 -70 90 -70 37 0 38 -1 42 -40 2 -22
-2 -50 -9 -63 -15 -26 -16 -40 -4 -33 5 4 22 1 37 -4 25 -10 31 -7 69 30 22
22 44 40 48 40 4 0 26 -12 48 -27 38 -25 43 -26 90 -15 28 7 61 12 75 12 13 0
29 9 36 20 7 11 21 20 31 20 25 0 56 17 90 48 22 21 26 32 21 57 -4 25 1 43
25 80 17 27 31 57 31 66 0 19 -72 112 -199 259 -46 52 -101 121 -122 152 -58
84 -210 401 -198 413 17 17 10 25 -38 46 -70 30 -223 157 -223 186 0 15 -51
43 -78 43 -22 0 -127 79 -217 163 -89 84 -112 86 -122 8 -3 -22 -9 -41 -12
-41 -20 0 -133 78 -178 123 l-53 51 36 -100 c19 -54 52 -125 73 -156 42 -62
42 -62 -18 -93 l-35 -18 -24 29 c-71 84 -247 284 -250 284 -2 0 16 -28 41 -62
24 -35 57 -85 72 -113 l29 -50 -86 81 c-47 45 -95 87 -107 94 l-22 11 17 -33
17 -33 -24 20 c-13 11 -49 43 -80 70 -31 28 -71 58 -90 69 -33 18 -33 18 6
-15 22 -18 69 -62 105 -97 l65 -64 -48 32 c-68 45 -145 78 -197 85 -45 5 -45
5 10 -10 74 -21 127 -54 182 -113 53 -56 73 -92 83 -146 l8 -38 -41 21 c-50
25 -59 26 -41 4 12 -15 12 -16 -6 -9 -45 18 -117 37 -122 33 -2 -3 11 -10 29
-16 18 -6 44 -20 58 -31 25 -20 25 -20 -24 0 -26 11 -77 36 -112 56 -35 20
-64 34 -64 31 0 -2 34 -28 75 -57 41 -30 73 -55 71 -57 -1 -2 -41 9 -87 23
-95 29 -371 95 -376 90 -2 -1 47 -22 109 -45 62 -23 120 -46 128 -52 12 -9 12
-10 -3 -5 -27 9 -105 17 -87 10 8 -4 39 -16 68 -26 81 -30 56 -32 -43 -3 -108
31 -123 31 -65 0 58 -31 47 -32 -21 -1 -30 13 -70 27 -89 30 -19 4 -44 9 -55
12 -11 2 7 -9 40 -24 68 -33 179 -102 173 -108 -3 -2 -26 3 -52 12 -26 9 -50
13 -53 10 -4 -3 -2 -6 4 -6 14 0 86 -30 82 -35 -2 -1 -33 3 -69 11 -73 15 -90
12 -33 -6 45 -15 116 -50 111 -55 -10 -11 -221 60 -238 80 -5 7 -15 70 -20
140 -6 71 -13 131 -15 135 -2 4 0 23 6 44 l10 37 26 -21 c14 -11 34 -20 44
-20 29 0 101 42 107 62 4 17 41 39 90 53 19 5 22 13 22 52 0 41 4 50 39 80 22
18 43 43 46 54 4 12 12 18 21 15 29 -11 63 12 69 46 6 30 12 36 62 53 30 11
55 25 54 30 0 6 -23 11 -51 13 l-50 3 0 54 c0 80 -32 156 -95 224 -102 109
-232 153 -346 116z m-355 -932 c4 -16 10 -60 15 -99 9 -74 39 -179 72 -253 11
-24 18 -45 16 -47 -2 -2 -32 11 -66 29 -126 64 -120 59 -122 97 -1 19 0 40 2
45 4 13 0 131 -6 175 -4 31 -1 38 28 57 43 29 54 28 61 -4z m1622 -1100 c-7
-7 -26 7 -26 19 0 6 6 6 15 -2 9 -7 13 -15 11 -17z m542 -210 c25 -10 11 -23
-27 -23 -60 0 -91 15 -91 45 l0 25 53 -21 c28 -12 58 -23 65 -26z m-4659
-1116 c6 -8 18 -42 27 -77 21 -85 13 -151 -37 -298 -39 -111 -152 -356 -170
-368 -14 -8 -246 114 -284 150 -57 54 -58 97 -5 178 21 31 54 61 104 92 69 43
178 148 290 279 54 61 58 64 75 44z m816 -66 c61 -24 128 -54 151 -67 63 -37
193 -72 364 -99 149 -24 180 -35 180 -67 0 -11 56 -38 79 -38 49 0 104 -233
126 -535 18 -254 37 -384 64 -453 17 -42 18 -53 6 -68 -12 -17 -19 -17 -101
-6 -48 7 -146 26 -218 42 -106 24 -135 34 -151 54 -13 16 -49 33 -107 51 -48
14 -90 30 -93 36 -8 11 -65 12 -65 0 0 -15 -100 39 -114 62 -8 12 -17 40 -21
62 -13 82 -20 90 -87 104 l-61 12 -36 -35 c-41 -40 -48 -43 -53 -20 -2 12 -16
6 -60 -25 -31 -23 -59 -41 -63 -41 -18 0 -198 147 -213 174 -21 39 -20 129 2
216 24 93 74 193 144 285 45 60 78 121 127 235 75 173 74 172 83 168 4 -2 57
-23 117 -47z m-2940 -159 c-32 -28 -117 -84 -121 -80 -2 3 24 24 58 46 59 39
84 53 63 34z"/>
<path d="M1049 2119 l-54 -51 58 48 c52 44 62 54 54 54 -2 0 -28 -23 -58 -51z"/>
</g>
</svg>
