<?xml version="1.0" standalone="no"?>
<!DOCTYPE svg PUBLIC "-//W3C//DTD SVG 20010904//EN"
 "http://www.w3.org/TR/2001/REC-SVG-20010904/DTD/svg10.dtd">
<svg version="1.0" xmlns="http://www.w3.org/2000/svg"
 width="200.000000pt" height="200.000000pt" viewBox="0 0 200.000000 200.000000"
 preserveAspectRatio="xMidYMid meet">

<g transform="translate(0.000000,200.000000) scale(0.100000,-0.100000)"
fill="#000000" stroke="none">
<path d="M902 1603 c-19 -9 -41 -32 -53 -55 l-19 -38 -175 0 -175 0 0 -50 0
-50 -160 0 -160 0 0 -400 c0 -260 -3 -400 -10 -400 -5 0 -10 -18 -10 -40 l0
-40 299 0 c253 0 300 -2 311 -15 21 -26 136 -55 215 -55 79 0 194 29 215 55
11 13 58 15 306 15 l294 0 0 40 c0 22 -4 40 -10 40 -6 0 -10 60 -10 159 l0
158 52 5 c38 4 57 12 70 28 24 30 23 81 -2 108 -18 20 -20 35 -20 201 0 109 4
182 10 186 14 9 13 58 -2 73 -15 15 -61 15 -76 0 -15 -15 -16 -64 -2 -73 6 -4
10 -77 10 -186 0 -172 -1 -179 -20 -179 -19 0 -20 7 -20 160 l0 160 -140 0
-140 0 0 50 0 50 -193 0 -193 0 -17 35 c-32 67 -107 92 -175 58z m-202 -553
l0 -260 -220 0 -220 0 0 260 0 260 220 0 220 0 0 -260z m480 0 l0 -260 -220 0
-220 0 0 260 0 260 220 0 220 0 0 -260z m480 0 l0 -260 -220 0 -220 0 0 260 0
260 220 0 220 0 0 -260z m-529 -437 c21 -8 39 -19 39 -24 0 -5 -15 -16 -32
-26 -48 -26 -298 -26 -345 0 -18 10 -33 20 -33 22 0 13 56 38 102 45 73 12
221 2 269 -17z"/>
<path d="M330 1113 c0 -55 2 -63 19 -63 10 0 25 10 33 21 12 19 20 21 62 15
l48 -8 -35 -36 c-40 -43 -57 -72 -57 -101 0 -19 6 -21 74 -21 l73 0 6 57 c3
33 19 82 36 117 34 68 29 92 -16 75 -16 -6 -38 -6 -61 0 -21 6 -70 9 -109 8
l-73 -1 0 -63z"/>
<path d="M820 1113 c0 -55 2 -63 19 -63 10 0 25 10 33 21 12 19 20 21 63 15
l48 -8 -27 -24 c-34 -32 -55 -64 -66 -103 l-9 -31 80 0 79 0 0 38 c0 51 22
123 50 162 20 28 21 33 7 47 -11 12 -19 13 -36 4 -15 -8 -32 -9 -59 -2 -20 6
-70 10 -109 9 l-73 -2 0 -63z"/>
<path d="M1305 1172 c-3 -3 -5 -32 -5 -64 0 -52 2 -58 21 -58 11 0 29 10 38
21 15 19 24 21 64 15 l47 -7 -31 -27 c-30 -25 -68 -92 -69 -119 0 -9 21 -13
74 -13 l74 0 6 31 c3 17 6 42 6 55 0 12 15 51 33 87 30 57 32 65 18 74 -10 6
-25 7 -40 2 -13 -6 -38 -5 -60 0 -36 10 -167 12 -176 3z"/>
</g>
</svg>
