<?xml version="1.0" standalone="no"?>
<!DOCTYPE svg PUBLIC "-//W3C//DTD SVG 20010904//EN"
 "http://www.w3.org/TR/2001/REC-SVG-20010904/DTD/svg10.dtd">
<svg version="1.0" xmlns="http://www.w3.org/2000/svg"
 width="117.000000pt" height="117.000000pt" viewBox="0 0 117.000000 117.000000"
 preserveAspectRatio="xMidYMid meet">

<g transform="translate(0.000000,117.000000) scale(0.100000,-0.100000)"
fill="#000000" stroke="none">
<path d="M463 1145 c-94 -20 -198 -79 -274 -155 -223 -221 -223 -578 0 -801
276 -276 737 -199 910 151 210 428 -168 907 -636 805z m246 -60 c183 -43 333
-193 376 -376 87 -370 -244 -701 -614 -614 -183 43 -333 193 -376 376 -87 370
244 701 614 614z"/>
<path d="M594 1046 c-10 -26 4 -48 28 -44 17 2 23 10 23 28 0 18 -6 26 -23 28
-13 2 -25 -3 -28 -12z"/>
<path d="M474 1036 c-10 -26 4 -48 28 -44 17 2 23 10 23 28 0 18 -6 26 -23 28
-13 2 -25 -3 -28 -12z"/>
<path d="M710 1006 c0 -29 24 -40 44 -20 20 20 9 44 -20 44 -19 0 -24 -5 -24
-24z"/>
<path d="M364 996 c-9 -24 4 -48 23 -44 12 2 18 12 18 28 0 29 -32 41 -41 16z"/>
<path d="M820 965 c-11 -13 -11 -19 3 -32 21 -21 49 -9 45 19 -4 28 -30 35
-48 13z"/>
<path d="M263 924 c-3 -8 2 -23 11 -32 15 -15 17 -15 32 0 21 21 11 48 -16 48
-11 0 -23 -7 -27 -16z"/>
<path d="M910 885 c-18 -21 -5 -47 22 -43 26 3 37 36 16 49 -18 12 -24 11 -38
-6z"/>
<path d="M489 847 c-23 -15 -34 -31 -34 -47 0 -33 27 -37 63 -10 l29 22 41
-21 c56 -28 102 -27 136 4 29 27 34 62 10 72 -8 3 -25 -4 -38 -16 -28 -26 -47
-26 -88 -1 -43 26 -77 25 -119 -3z"/>
<path d="M190 835 c-11 -13 -11 -19 3 -32 21 -21 49 -9 45 19 -4 28 -30 35
-48 13z"/>
<path d="M273 783 c-4 -10 6 -40 25 -74 18 -32 32 -70 32 -85 0 -45 44 -108
95 -135 52 -27 55 -47 8 -66 -32 -12 -32 -12 -62 37 -31 51 -65 66 -77 35 -6
-14 85 -174 111 -195 23 -19 48 0 41 31 -6 30 14 49 49 49 14 0 13 -5 -6 -31
-29 -41 -16 -69 45 -98 38 -19 51 -21 82 -12 36 10 94 55 94 74 0 5 -9 21 -20
37 -24 33 -18 41 21 27 26 -10 28 -15 23 -43 -4 -24 -2 -33 11 -38 24 -9 27
-5 90 94 58 91 64 120 25 120 -14 0 -31 -16 -52 -50 -30 -49 -31 -49 -62 -36
-41 17 -45 40 -8 55 54 23 113 105 112 158 0 10 14 46 32 80 25 48 30 65 21
74 -31 31 -142 -44 -159 -106 -19 -70 -23 -75 -65 -75 -38 0 -39 1 -39 38 0
21 -7 47 -15 59 -19 27 -79 41 -100 23 -21 -18 -19 -41 5 -47 25 -7 25 -21 1
-50 -21 -26 -63 -30 -80 -10 -6 8 -14 29 -17 48 -8 42 -26 64 -83 101 -52 32
-69 35 -78 11z m387 -255 c0 -41 -21 -98 -45 -125 l-25 -28 -25 28 c-24 27
-45 84 -45 125 0 21 4 22 70 22 66 0 70 -1 70 -22z"/>
<path d="M972 783 c-13 -26 -4 -43 24 -43 19 0 24 5 24 24 0 13 -7 27 -16 30
-22 8 -22 8 -32 -11z"/>
<path d="M147 733 c-13 -12 -7 -44 8 -49 24 -10 47 14 34 37 -10 19 -30 25
-42 12z"/>
<path d="M1004 665 c-8 -21 2 -45 19 -45 8 0 20 7 27 15 10 12 10 18 0 30 -7
8 -19 15 -27 15 -7 0 -16 -7 -19 -15z"/>
<path d="M124 606 c-10 -26 4 -48 28 -44 33 4 33 52 0 56 -13 2 -25 -3 -28
-12z"/>
<path d="M1004 545 c-8 -21 2 -45 19 -45 8 0 20 7 27 15 10 12 10 18 0 30 -7
8 -19 15 -27 15 -7 0 -16 -7 -19 -15z"/>
<path d="M144 485 c-8 -21 2 -45 19 -45 8 0 20 7 27 15 10 12 10 18 0 30 -7 8
-19 15 -27 15 -7 0 -16 -7 -19 -15z"/>
<path d="M971 436 c-17 -20 -3 -46 25 -46 19 0 24 5 24 24 0 13 -7 27 -16 30
-21 8 -20 8 -33 -8z"/>
<path d="M194 375 c-8 -21 2 -45 19 -45 8 0 20 7 27 15 10 12 10 18 0 30 -7 8
-19 15 -27 15 -7 0 -16 -7 -19 -15z"/>
<path d="M906 324 c-4 -10 -1 -24 7 -31 19 -19 49 -5 45 21 -4 27 -43 34 -52
10z"/>
<path d="M270 285 c-17 -20 -5 -45 20 -45 11 0 23 7 26 15 6 15 -11 45 -26 45
-4 0 -13 -7 -20 -15z"/>
<path d="M822 247 c-9 -10 -9 -18 1 -31 17 -23 49 -11 45 18 -4 25 -30 32 -46
13z"/>
<path d="M370 215 c-7 -8 -10 -22 -6 -30 7 -19 45 -19 52 0 6 15 -11 45 -26
45 -4 0 -13 -7 -20 -15z"/>
<path d="M722 201 c-21 -13 -10 -46 16 -49 27 -4 40 22 22 43 -14 17 -20 18
-38 6z"/>
<path d="M480 175 c-11 -13 -11 -19 3 -32 21 -21 49 -9 45 19 -4 28 -30 35
-48 13z"/>
<path d="M596 164 c-4 -10 -1 -24 7 -31 19 -19 49 -5 45 21 -4 27 -43 34 -52
10z"/>
</g>
</svg>
